<?xml version="1.0" standalone="no"?>
<!DOCTYPE svg PUBLIC "-//W3C//DTD SVG 20010904//EN"
 "http://www.w3.org/TR/2001/REC-SVG-20010904/DTD/svg10.dtd">
<svg version="1.0" xmlns="http://www.w3.org/2000/svg"
 width="1002.000000pt" height="238.000000pt" viewBox="0 0 1002.000000 238.000000"
 preserveAspectRatio="xMidYMid meet">
<metadata>
Created by potrace 1.16, written by Peter Selinger 2001-2019
</metadata>
<g transform="translate(0.000000,238.000000) scale(0.100000,-0.100000)"
fill="#000000" stroke="none">
<path d="M4348 1953 l-3 -78 -47 -3 -48 -3 0 -55 0 -54 44 0 44 0 4 -154 c3
-137 5 -158 24 -183 34 -47 79 -63 172 -63 l82 0 0 55 0 55 -53 0 c-83 0 -88
11 -85 161 l3 124 68 3 67 3 0 54 0 54 -67 3 -68 3 -3 78 -3 77 -64 0 -64 0
-3 -77z"/>
<path d="M4815 1864 c-48 -18 -81 -47 -106 -96 -15 -30 -19 -59 -19 -152 0
-125 7 -156 48 -200 48 -51 95 -66 212 -66 121 0 167 10 211 47 53 45 69 93
68 213 0 156 -22 203 -114 246 -43 20 -65 24 -155 23 -65 0 -120 -6 -145 -15z
m248 -123 c20 -19 22 -32 22 -126 0 -95 -2 -106 -23 -127 -20 -20 -33 -23
-103 -23 -76 0 -82 2 -105 28 -22 25 -24 37 -24 120 0 136 22 160 143 153 54
-3 74 -8 90 -25z"/>
<path d="M5520 1864 c-14 -10 -31 -24 -37 -32 -11 -14 -13 -12 -13 11 0 27 -1
27 -65 27 l-65 0 0 -255 0 -255 70 0 70 0 0 169 c0 168 0 170 26 201 24 28 31
31 78 28 72 -4 76 -15 76 -225 l0 -173 68 0 67 0 0 169 c0 157 2 172 21 198
18 24 29 28 75 31 78 5 79 2 79 -215 l0 -183 70 0 70 0 0 196 c0 220 -6 244
-68 292 -28 21 -48 27 -103 30 -87 5 -110 -1 -154 -39 -29 -26 -36 -28 -41
-15 -3 8 -21 25 -39 36 -42 26 -149 28 -185 4z"/>
<path d="M6485 1875 c-5 -2 -22 -6 -37 -9 -14 -3 -40 -18 -57 -32 l-31 -26 0
31 0 31 -65 0 -65 0 0 -255 0 -255 70 0 70 0 0 148 c0 120 3 153 18 182 21 44
72 70 135 70 l47 0 0 60 0 60 -37 -1 c-21 0 -42 -2 -48 -4z"/>
<path d="M6857 1874 c-4 -4 -7 -171 -7 -371 l0 -364 73 3 72 3 3 118 c2 108 4
118 20 112 69 -30 105 -37 165 -31 78 9 132 38 171 93 27 39 30 51 34 150 5
123 -6 177 -45 223 -44 53 -91 70 -191 70 -78 0 -94 -3 -125 -24 l-36 -25 -3
22 c-3 19 -10 22 -63 25 -34 2 -64 0 -68 -4z m362 -140 c18 -23 21 -41 21
-119 0 -78 -3 -96 -21 -119 -19 -24 -27 -26 -90 -26 -65 0 -73 2 -100 29 -27
28 -29 34 -29 114 0 82 1 87 31 116 28 29 36 31 99 31 62 0 70 -2 89 -26z"/>
<path d="M7497 1873 c-4 -3 -7 -123 -7 -265 l0 -258 69 0 69 0 4 163 c2 118 7
168 17 183 24 36 65 54 125 54 l56 0 0 65 0 65 -47 0 c-48 0 -124 -28 -137
-49 -13 -21 -26 -11 -26 19 0 30 0 30 -58 30 -32 0 -62 -3 -65 -7z"/>
<path d="M7975 1861 c-49 -22 -91 -69 -106 -119 -6 -22 -9 -86 -7 -154 3 -113
4 -117 34 -155 17 -21 51 -49 75 -63 40 -22 55 -25 159 -24 105 0 120 2 167
27 77 40 104 92 111 211 8 153 -28 234 -122 277 -59 27 -253 27 -311 0z m260
-126 c23 -22 25 -32 25 -120 0 -88 -2 -98 -25 -120 -21 -22 -33 -25 -99 -25
-41 0 -82 3 -91 6 -30 12 -45 60 -45 143 0 71 3 83 26 110 25 30 29 31 105 31
71 0 83 -3 104 -25z"/>
<path d="M150 1770 l0 -40 1840 0 1840 0 0 40 0 40 -1840 0 -1840 0 0 -40z"/>
<path d="M8810 1770 l0 -40 475 0 475 0 0 40 0 40 -475 0 -475 0 0 -40z"/>
<path d="M150 1450 l0 -160 1840 0 1840 0 0 160 0 160 -1840 0 -1840 0 0 -160z"/>
<path d="M8810 1450 l0 -160 475 0 475 0 0 160 0 160 -475 0 -475 0 0 -160z"/>
<path d="M6602 1487 c-22 -23 -29 -68 -16 -102 8 -19 55 -45 84 -45 12 0 35
13 51 29 35 35 38 77 8 115 -28 35 -95 37 -127 3z"/>
<path d="M410 1009 c-50 -19 -65 -55 -68 -169 -5 -128 7 -171 52 -199 44 -27
163 -30 207 -4 51 30 80 123 39 123 -13 0 -25 -12 -35 -36 -21 -51 -41 -63
-106 -64 -48 0 -60 4 -83 26 -25 26 -26 31 -26 134 0 100 1 108 24 129 30 28
103 39 144 22 16 -7 36 -27 45 -47 17 -35 43 -45 53 -20 9 23 -26 86 -57 101
-32 17 -149 19 -189 4z"/>
<path d="M676 1012 c-3 -5 25 -58 62 -118 65 -106 67 -111 72 -189 5 -74 7
-80 28 -83 21 -3 22 -1 22 73 l0 77 66 106 c77 122 85 142 57 142 -25 0 -40
-17 -93 -108 -23 -40 -46 -75 -50 -77 -5 -3 -32 34 -61 82 -29 49 -57 91 -63
95 -15 10 -34 10 -40 0z"/>
<path d="M1060 833 c0 -134 4 -193 12 -201 8 -8 49 -12 120 -12 104 0 109 1
139 28 25 23 33 38 36 78 5 43 2 54 -22 82 -21 26 -25 35 -16 46 7 8 11 37 9
67 -5 79 -29 93 -169 97 l-109 4 0 -189z m225 113 c18 -28 12 -66 -15 -91 -14
-12 -34 -15 -91 -13 l-74 3 -3 49 c-5 75 -3 76 87 76 74 0 82 -2 96 -24z m15
-166 c25 -25 26 -61 1 -91 -17 -21 -29 -24 -101 -27 -62 -3 -85 -1 -91 9 -10
16 -12 113 -2 122 3 4 44 7 90 7 70 0 86 -3 103 -20z"/>
<path d="M1440 832 c0 -133 4 -192 12 -200 8 -8 53 -12 135 -12 116 0 123 1
123 20 0 19 -7 20 -110 20 l-110 0 0 70 0 70 100 0 c60 0 100 4 100 10 0 6 0
13 0 18 0 4 -44 9 -97 12 l-98 5 0 65 0 65 108 3 c99 2 107 4 107 22 0 19 -7
20 -135 20 l-135 0 0 -188z"/>
<path d="M1780 820 l0 -200 25 0 c24 0 24 2 27 83 l3 82 56 3 c74 4 103 -19
127 -103 16 -52 22 -60 45 -63 l26 -3 -15 53 c-9 29 -24 71 -35 92 -18 35 -19
40 -5 48 22 12 46 61 46 93 0 15 -7 42 -16 61 -21 43 -58 54 -186 54 l-98 0 0
-200z m241 123 c12 -31 4 -70 -18 -95 -13 -14 -33 -18 -95 -18 l-78 0 0 70 0
70 90 0 c89 0 91 0 101 -27z"/>
<path d="M2330 1007 c-65 -33 -67 -147 -3 -181 16 -8 58 -20 93 -26 87 -15
110 -31 110 -75 0 -46 -29 -65 -100 -65 -61 0 -100 19 -100 50 0 18 -36 38
-47 26 -13 -13 10 -77 34 -96 21 -17 40 -20 114 -20 78 0 91 3 116 24 25 21
28 31 28 81 0 74 -25 98 -121 114 -97 17 -124 34 -124 75 0 44 19 58 84 64 61
5 93 -8 106 -44 5 -13 17 -24 25 -24 40 0 22 71 -24 95 -37 18 -155 20 -191 2z"/>
<path d="M2647 1014 c-4 -4 -7 -87 -7 -185 0 -150 3 -180 16 -194 13 -13 37
-15 137 -13 106 3 122 5 125 20 3 15 -9 18 -110 20 l-113 3 -3 68 -3 67 106 0
c98 0 105 1 105 20 0 19 -7 20 -89 20 -121 0 -121 0 -121 71 0 69 -3 68 135
72 72 2 90 5 90 17 0 12 -22 15 -131 18 -71 1 -133 -1 -137 -4z"/>
<path d="M3034 1002 c-44 -28 -64 -85 -64 -185 0 -58 6 -94 19 -123 28 -62 52
-74 147 -74 73 0 86 3 111 24 50 42 64 140 16 110 -10 -6 -19 -21 -21 -32 -6
-37 -49 -62 -106 -62 -63 0 -92 18 -106 68 -13 49 -12 148 3 192 16 45 49 62
114 57 57 -4 90 -25 95 -61 2 -13 11 -22 27 -24 22 -4 24 -1 18 34 -4 21 -18
49 -32 63 -22 23 -35 26 -108 29 -67 2 -88 0 -113 -16z"/>
<path d="M3357 1014 c-4 -4 -7 -72 -7 -151 0 -217 17 -243 157 -243 77 0 85 2
115 29 l33 29 3 172 3 172 -23 -4 c-23 -3 -23 -4 -26 -160 -2 -156 -3 -157
-29 -177 -35 -28 -121 -29 -154 -2 -23 18 -24 26 -29 177 -4 133 -8 159 -20
162 -9 1 -19 0 -23 -4z"/>
<path d="M3750 820 l0 -200 25 0 c24 0 24 2 27 83 l3 82 56 3 c74 4 103 -19
127 -103 16 -52 22 -60 45 -63 l26 -3 -15 53 c-9 29 -24 71 -35 92 -18 35 -19
40 -5 48 22 12 46 61 46 93 0 15 -7 42 -16 61 -21 43 -58 54 -186 54 l-98 0 0
-200z m241 123 c12 -31 4 -70 -18 -95 -13 -14 -33 -18 -95 -18 l-78 0 0 70 0
70 90 0 c89 0 91 0 101 -27z"/>
<path d="M4125 1008 c-3 -8 -4 -97 -3 -198 3 -184 3 -185 26 -188 l22 -3 -2
198 c-3 179 -5 198 -21 201 -9 2 -19 -3 -22 -10z"/>
<path d="M4237 1013 c-21 -20 -4 -33 42 -33 85 0 81 10 81 -186 0 -167 1 -174
20 -174 19 0 20 7 20 168 0 117 4 172 12 180 7 7 36 12 65 12 46 0 53 3 53 20
0 19 -7 20 -143 20 -79 0 -147 -3 -150 -7z"/>
<path d="M4560 1009 c0 -8 32 -66 70 -130 69 -116 70 -118 70 -188 0 -64 2
-71 20 -71 18 0 20 7 20 71 0 71 0 72 74 194 41 68 72 126 69 129 -22 21 -46
-1 -99 -89 -31 -53 -61 -94 -66 -93 -5 2 -33 44 -62 93 -37 64 -59 91 -74 93
-13 2 -22 -2 -22 -9z"/>
<path d="M5100 833 c0 -134 4 -193 12 -201 18 -18 182 -16 223 4 55 26 69 56
73 167 8 174 -25 209 -200 215 l-108 4 0 -189z m231 111 c21 -22 24 -37 27
-108 6 -144 -28 -182 -158 -174 l-55 3 -3 153 -3 152 84 0 c77 0 85 -2 108
-26z"/>
<path d="M5514 1001 c-44 -27 -64 -84 -64 -184 0 -91 21 -153 61 -181 31 -21
168 -22 208 -2 55 29 66 59 66 186 0 127 -11 157 -66 186 -42 21 -166 19 -205
-5z m176 -36 c35 -18 50 -63 50 -151 0 -115 -30 -154 -120 -154 -89 0 -120 41
-120 160 0 86 16 129 53 145 42 19 101 19 137 0z"/>
<path d="M5921 1008 c-51 -28 -66 -62 -70 -166 -4 -113 8 -161 50 -196 27 -23
39 -26 113 -26 58 0 88 5 104 16 47 33 71 124 33 124 -13 0 -23 -11 -31 -35
-16 -49 -44 -65 -111 -65 -52 0 -60 3 -83 31 -24 28 -26 38 -26 122 0 113 18
152 75 163 75 14 140 -13 147 -60 2 -13 11 -22 27 -24 22 -4 24 -1 18 34 -4
21 -18 49 -32 63 -23 23 -35 26 -108 29 -53 2 -91 -2 -106 -10z"/>
<path d="M6247 1014 c-4 -4 -7 -69 -7 -145 0 -215 21 -249 156 -249 142 0 159
27 159 245 0 143 -1 150 -20 150 -19 0 -20 -8 -25 -152 -5 -143 -7 -153 -29
-177 -21 -22 -33 -26 -81 -26 -43 0 -61 5 -78 20 -29 27 -32 43 -35 200 -2
112 -5 135 -17 138 -9 1 -19 0 -23 -4z"/>
<path d="M6630 820 c0 -193 1 -200 20 -200 19 0 20 7 20 140 0 78 4 140 9 140
5 0 32 -42 60 -94 28 -52 56 -98 61 -101 18 -11 39 15 87 107 32 62 48 86 54
76 5 -7 9 -70 9 -140 0 -121 1 -128 20 -128 19 0 20 7 20 201 0 200 0 200 -22
197 -16 -2 -37 -32 -84 -118 -34 -63 -66 -116 -71 -117 -5 -2 -35 45 -67 104
-69 128 -73 133 -97 133 -18 0 -19 -11 -19 -200z"/>
<path d="M7087 1013 c-13 -12 -8 -368 5 -381 8 -8 53 -12 135 -12 116 0 123 1
123 20 0 19 -7 20 -110 20 l-110 0 0 70 0 69 102 3 c88 3 103 6 106 20 3 15
-9 18 -100 20 l-103 3 0 65 0 65 108 3 c99 2 107 4 107 22 0 19 -7 20 -128 20
-71 0 -132 -3 -135 -7z"/>
<path d="M7427 1013 c-4 -3 -7 -93 -7 -200 l0 -193 25 0 24 0 3 153 3 152 103
-152 c86 -129 107 -153 128 -153 l24 0 -2 198 c-3 189 -4 197 -23 197 -19 0
-20 -8 -23 -147 -1 -82 -6 -148 -10 -148 -4 1 -47 62 -97 137 -49 75 -96 142
-103 150 -14 14 -35 17 -45 6z"/>
<path d="M7790 1000 c0 -17 6 -20 49 -20 85 0 81 10 81 -186 0 -167 1 -174 20
-174 19 0 20 7 20 174 0 196 -4 186 82 186 42 0 49 3 46 18 -3 15 -20 17 -151
20 -142 2 -147 2 -147 -18z"/>
<path d="M8206 1012 c-2 -4 -30 -73 -60 -152 -31 -80 -63 -160 -71 -178 -20
-44 -19 -62 5 -62 14 0 25 12 36 38 9 20 20 44 24 52 5 12 26 15 91 15 l84 0
19 -52 c15 -44 23 -53 42 -53 13 0 24 4 24 9 0 5 -15 46 -33 92 -19 46 -51
129 -72 184 -22 55 -44 103 -50 107 -13 10 -33 10 -39 0z"/>
<path d="M8377 1014 c-21 -21 -5 -34 42 -34 85 0 81 10 81 -186 0 -167 1 -174
20 -174 19 0 20 7 20 174 0 196 -4 186 82 186 42 0 49 3 46 18 -3 15 -19 17
-144 20 -77 1 -143 -1 -147 -4z"/>
<path d="M8737 1014 c-4 -4 -7 -94 -7 -201 l0 -193 25 0 25 0 -2 197 c-3 169
-5 198 -18 201 -9 1 -19 0 -23 -4z"/>
<path d="M8920 1002 c-51 -25 -72 -89 -67 -202 7 -146 40 -180 176 -180 71 0
83 3 110 26 38 32 51 77 50 179 -1 150 -38 195 -163 195 -48 0 -83 -6 -106
-18z m164 -32 c40 -15 56 -58 56 -150 0 -127 -25 -160 -123 -160 -74 0 -102
25 -111 104 -14 110 7 185 59 207 28 11 89 11 119 -1z"/>
<path d="M9264 1007 c-2 -7 -3 -96 -2 -197 3 -183 3 -185 26 -188 22 -3 22 -3
22 148 0 93 4 149 10 145 5 -3 53 -71 106 -150 79 -118 101 -145 121 -145 l23
0 -2 198 c-3 189 -4 197 -23 197 -19 0 -20 -8 -25 -150 l-5 -150 -75 110 c-41
61 -87 129 -102 153 -28 42 -63 56 -74 29z"/>
<path d="M150 440 l0 -40 4805 0 4805 0 0 40 0 40 -4805 0 -4805 0 0 -40z"/>
</g>
</svg>
